<svg height="512pt" viewBox="-64 0 512 512" width="512pt" xmlns="http://www.w3.org/2000/svg"><g fill-rule="evenodd"><path d="m374.445312 327.234375v174.765625h-364.445312v-174.765625l89.449219 77.078125 92.773437-79.941406 92.773438 79.941406zm0 0" fill="#919cb0"/><path d="m10 10h260.425781l104.019531 104.019531v121.023438l-19.507812 16.882812-69.941406 60.265625-92.773438-79.941406-92.773437 79.941406-69.9375-60.265625-19.511719-16.882812zm0 0" fill="#b5f2ff"/><path d="m270.425781 10v104.019531h104.019531zm0 0" fill="#00d8ff"/><path d="m374.445312 444.617188c-5.523437 0-10 4.476562-10 10v37.382812h-344.445312v-142.949219l72.921875 62.835938c3.753906 3.230469 9.304687 3.230469 13.054687 0l86.246094-74.316407 86.246094 74.316407c3.75 3.230469 9.304688 3.230469 13.054688 0l72.921874-62.835938v25.566407c0 5.523437 4.476563 10 10 10 5.523438 0 10-4.476563 10-10v-47.382813c0-3.910156-2.28125-7.460937-5.832031-9.089844-3.558593-1.628906-7.734375-1.039062-10.695312 1.515625l-82.921875 71.449219-86.246094-74.3125c-3.75-3.234375-9.300781-3.234375-13.054688 0l-86.246093 74.3125-82.921875-71.449219c-2.960938-2.554687-7.136719-3.144531-10.691406-1.515625-3.554688 1.628907-5.835938 5.179688-5.835938 9.089844v174.765625c0 5.523438 4.480469 10 10 10h364.445312c5.523438 0 10-4.476562 10-10v-47.382812c0-5.523438-4.476562-10-10-10zm0 0"/><path d="m3.457031 242.605469 19.527344 16.894531 69.9375 60.265625c3.753906 3.230469 9.304687 3.230469 13.054687 0l86.246094-74.316406 86.246094 74.316406c1.875 1.617187 4.199219 2.425781 6.527344 2.425781 2.324218-.003906 4.652344-.808594 6.527344-2.425781l69.957031-60.277344 19.507812-16.882812c2.195313-1.898438 3.457031-4.660157 3.457031-7.5625v-121.023438c0-.117187-.015624-.230469-.019531-.34375-.003906-.109375-.007812-.214843-.015625-.328125-.027344-.429687-.074218-.855468-.160156-1.277344 0 0 0 0 0-.003906-.085938-.421875-.203125-.835937-.34375-1.246094-.035156-.101562-.070312-.203124-.109375-.304687-.144531-.386719-.304687-.765625-.496094-1.132813-.011719-.019531-.019531-.039062-.03125-.0625-.203125-.382812-.4375-.746093-.691406-1.097656-.0625-.089844-.128906-.179687-.195313-.265625-.265624-.351562-.550781-.691406-.867187-1.007812l-104.019531-104.019531c-.3125-.316407-.652344-.597657-1.003906-.867188-.089844-.066406-.179688-.136719-.273438-.199219-.351562-.253906-.710938-.488281-1.089844-.6875-.027344-.015625-.054687-.023437-.078125-.039062-.359375-.1875-.734375-.347657-1.113281-.492188-.105469-.039062-.210938-.074219-.316406-.109375-.40625-.136718-.816406-.257812-1.242188-.34375h-.007812c-.417969-.082031-.84375-.128906-1.273438-.160156-.109375-.0039062-.21875-.0117188-.328125-.015625-.117187-.0039062-.230469-.015625-.34375-.015625h-260.425781c-5.523438 0-10 4.476562-10 10v72.519531c0 5.523438 4.476562 10 10 10s10-4.476562 10-10v-62.519531h240.425781v94.019531c0 5.523438 4.476563 10 10 10h94.019531v106.453125l-16.035156 13.878906-63.414062 54.640626-86.246094-74.316407c-3.75-3.230469-9.300781-3.230469-13.054688 0l-86.246093 74.316407-63.394531-54.628907-16.054688-13.890625v-67.949218c0-5.523438-4.476562-10-10-10s-10 4.476562-10 10v72.519531c0 2.902343 1.261719 5.664062 3.457031 7.5625zm276.96875-208.464844 69.878907 69.878906h-69.878907zm0 0"/><path d="m10 132.523438c5.507812 0 10-4.492188 10-10 0-5.507813-4.492188-10-10-10s-10 4.492187-10 10c0 5.507812 4.492188 10 10 10zm0 0"/><path d="m374.445312 404.617188c-5.507812 0-10 4.492187-10 10 0 5.507812 4.492188 10 10 10 5.507813 0 10-4.492188 10-10 0-5.507813-4.492187-10-10-10zm0 0"/></g></svg>