<svg height="512pt" viewBox="-18 0 512 512.00077" width="512pt" xmlns="http://www.w3.org/2000/svg"><path d="m335.449219 167.726562v-105.933593c0-14.625-11.855469-26.480469-26.484375-26.480469h-282.480469c-14.628906 0-26.484375 11.855469-26.484375 26.480469v388.414062c0 14.625 11.855469 26.484375 26.484375 26.484375h158.894531zm0 0" fill="#f18d46"/><path d="m258.550781 70.894531-16.410156-31.503906-13.707031-26.316406c-4.332032-8.109375-12.804688-13.1445315-22-13.074219h-76.332032c-9.195312-.0703125-17.667968 4.964844-22 13.074219l-13.707031 26.316406-16.421875 31.503906" fill="#a5a5a4"/><path d="m258.472656 70.796875h.085938c13.859375 1.589844 24.109375 13.660156 23.433594 27.59375-.675782 13.933594-12.042969 24.953125-25.992188 25.195313h-176.550781c-10.703125-.007813-20.351563-6.460938-24.445313-16.351563-4.09375-9.886719-1.832031-21.269531 5.730469-28.84375 4.582031-4.664063 10.769531-7.410156 17.300781-7.679687" fill="#a5a5a4"/><path d="m185.378906 52.964844c0 9.753906-7.902344 17.65625-17.65625 17.65625-9.75 0-17.652344-7.902344-17.652344-17.65625 0-9.75 7.902344-17.652344 17.652344-17.652344 9.753906 0 17.65625 7.902344 17.65625 17.652344zm0 0" fill="#e6e7e8"/><path d="m476.691406 256v229.519531c0 14.625-11.859375 26.480469-26.484375 26.480469h-238.34375c-14.625 0-26.484375-11.855469-26.484375-26.480469v-291.3125c0-14.625 11.859375-26.480469 26.484375-26.480469h167.722657" fill="#f3d55b"/><path d="m476.691406 256h-79.449218c-9.75 0-17.65625-7.902344-17.65625-17.65625v-70.617188zm0 0" fill="#f9eab0"/><g fill="#2c3e50"><path d="m432.550781 300.140625h-203.03125c-4.878906 0-8.828125-3.953125-8.828125-8.828125s3.949219-8.828125 8.828125-8.828125h203.03125c4.875 0 8.828125 3.953125 8.828125 8.828125s-3.953125 8.828125-8.828125 8.828125zm0 0"/><path d="m432.550781 344.277344h-203.03125c-4.878906 0-8.828125-3.953125-8.828125-8.828125s3.949219-8.828125 8.828125-8.828125h203.03125c4.875 0 8.828125 3.953125 8.828125 8.828125s-3.953125 8.828125-8.828125 8.828125zm0 0"/><path d="m432.550781 388.414062h-203.03125c-4.878906 0-8.828125-3.953124-8.828125-8.828124s3.949219-8.828126 8.828125-8.828126h203.03125c4.875 0 8.828125 3.953126 8.828125 8.828126s-3.953125 8.828124-8.828125 8.828124zm0 0"/><path d="m432.550781 432.550781h-203.03125c-4.878906 0-8.828125-3.949219-8.828125-8.824219 0-4.878906 3.949219-8.828124 8.828125-8.828124h203.03125c4.875 0 8.828125 3.949218 8.828125 8.828124 0 4.875-3.953125 8.824219-8.828125 8.824219zm0 0"/><path d="m432.550781 476.691406h-203.03125c-4.878906 0-8.828125-3.953125-8.828125-8.828125s3.949219-8.828125 8.828125-8.828125h203.03125c4.875 0 8.828125 3.953125 8.828125 8.828125s-3.953125 8.828125-8.828125 8.828125zm0 0"/></g><path d="m35.3125 185.378906c-4.878906 0-8.828125-3.949218-8.828125-8.828125v-26.480469c0-4.875 3.949219-8.828124 8.828125-8.828124 4.875 0 8.824219 3.953124 8.824219 8.828124v26.480469c0 4.878907-3.949219 8.828125-8.824219 8.828125zm0 0" fill="#fac176"/><path d="m35.3125 344.277344c-4.878906 0-8.828125-3.953125-8.828125-8.828125v-123.585938c0-4.875 3.949219-8.828125 8.828125-8.828125 4.875 0 8.824219 3.953125 8.824219 8.828125v123.585938c0 4.875-3.949219 8.828125-8.824219 8.828125zm0 0" fill="#fac176"/></svg>