<?xml version="1.0" encoding="utf-8"?>

<!-- Uploaded to: SVG Repo, www.svgrepo.com, Generator: SVG Repo Mixer Tools -->
<svg fill="#000000" version="1.1" id="Layer_1" xmlns="http://www.w3.org/2000/svg" xmlns:xlink="http://www.w3.org/1999/xlink" 
	 viewBox="0 0 24 24" xml:space="preserve">
<style type="text/css">
	.st0{fill:none;}
</style>
<path d="M4,3C2.9,3,2,3.9,2,5v14c0,1.1,0.9,2,2,2h16c1.1,0,2-0.9,2-2V5c0-1.1-0.9-2-2-2H4z M4,5h16v14H4V5z M12,8c-3.3,0-6,3.3-6,4
	s2.7,4,6,4s6-3.5,6-4S15.3,8,12,8z M12,9.5V11c0,0.6,0.4,1,1,1h1.5c0,1.6-1.5,2.8-3.2,2.4c-0.8-0.2-1.5-0.9-1.8-1.8
	C9.2,11,10.4,9.5,12,9.5z"/>
<rect class="st0" width="24" height="24"/>
</svg>