<svg width="24" height="24" viewBox="0 0 24 24" fill="none" xmlns="http://www.w3.org/2000/svg">
  <path d="M12 8.85C10.2603 8.85 8.85 10.2603 8.85 12C8.85 13.7397 10.2603 15.15 12 15.15C13.7397 15.15 15.15 13.7397 15.15 12C15.15 10.2603 13.7397 8.85 12 8.85Z" stroke="#D6DEE8" stroke-width="1.7"/>
  <path d="M19.1 13.1V10.9L17.322 10.41C17.1654 9.88421 16.9556 9.38076 16.698 8.906L17.61 7.31L16.05 5.75L14.454 6.662C13.9792 6.4044 13.4758 6.19459 12.95 6.038L12.46 4.26H10.26L9.77 6.038C9.24421 6.19459 8.74076 6.4044 8.266 6.662L6.67 5.75L5.11 7.31L6.022 8.906C5.7644 9.38076 5.55459 9.88421 5.398 10.41L3.62 10.9V13.1L5.398 13.59C5.55459 14.1158 5.7644 14.6192 6.022 15.094L5.11 16.69L6.67 18.25L8.266 17.338C8.74076 17.5956 9.24421 17.8054 9.77 17.962L10.26 19.74H12.46L12.95 17.962C13.4758 17.8054 13.9792 17.5956 14.454 17.338L16.05 18.25L17.61 16.69L16.698 15.094C16.9556 14.6192 17.1654 14.1158 17.322 13.59L19.1 13.1Z" stroke="#D6DEE8" stroke-width="1.5" stroke-linejoin="round"/>
</svg>
