<svg id="_x31_px" enable-background="new 0 0 24 24" height="512" viewBox="0 0 24 24" width="512" xmlns="http://www.w3.org/2000/svg"><path d="m19.5 24h-15c-1.379 0-2.5-1.122-2.5-2.5v-19c0-1.378 1.121-2.5 2.5-2.5h15c1.379 0 2.5 1.122 2.5 2.5v19c0 1.378-1.121 2.5-2.5 2.5zm-15-23c-.827 0-1.5.673-1.5 1.5v19c0 .827.673 1.5 1.5 1.5h15c.827 0 1.5-.673 1.5-1.5v-19c0-.827-.673-1.5-1.5-1.5z"/><path d="m16.5 15c-.096 0-.192-.027-.277-.084-.229-.153-.292-.463-.139-.693l1.815-2.723-1.815-2.723c-.153-.23-.091-.54.139-.693.228-.152.539-.092.693.139l2 3c.112.168.112.387 0 .555l-2 3c-.097.144-.255.222-.416.222z"/><path d="m7.5 15c-.161 0-.319-.078-.416-.223l-2-3c-.112-.168-.112-.387 0-.555l2-3c.154-.231.466-.29.693-.139.229.153.292.463.139.693l-1.815 2.724 1.815 2.723c.153.23.091.54-.139.693-.085.057-.181.084-.277.084z"/><path d="m12 14c-.276 0-.5-.224-.5-.5v-.263c0-.96.505-1.881 1.386-2.526.385-.282.614-.735.614-1.211 0-.827-.673-1.5-1.5-1.5s-1.5.673-1.5 1.5c0 .276-.224.5-.5.5s-.5-.224-.5-.5c0-1.378 1.121-2.5 2.5-2.5s2.5 1.122 2.5 2.5c0 .793-.382 1.547-1.022 2.017-.365.268-.978.847-.978 1.72v.263c0 .276-.224.5-.5.5z"/><circle cx="12" cy="15.5" r=".5"/></svg>